<?xml version="1.0" encoding="UTF-8"?>
<svg width="14px" height="14px" viewBox="0 0 14 14" version="1.1" xmlns="http://www.w3.org/2000/svg" xmlns:xlink="http://www.w3.org/1999/xlink">
    <!-- Generator: Sketch 44.1 (41455) - http://www.bohemiancoding.com/sketch -->
    <title>Shape</title>
    <desc>Created with Sketch.</desc>
    <defs></defs>
    <g id="Welcome-Copy-2" stroke="none" stroke-width="1" fill="none" fill-rule="evenodd">
        <g id="Desktop-HD" transform="translate(-509.000000, -1923.000000)" fill-rule="nonzero" fill="#FFFFFF">
            <g id="Group-12" transform="translate(0.000000, 1518.000000)">
                <g id="Group-16" transform="translate(251.000000, 148.000000)">
                    <g id="new">
                        <g id="Group-15" transform="translate(142.000000, 251.000000)">
                            <path d="M122.815649,6.10985144 L122.196931,6.7285695 C122.050493,6.87500684 122.050493,7.11244407 122.196931,7.25891266 L127.044738,12.1066885 L116.375,12.1066885 C116.167906,12.1066885 116,12.2745946 116,12.4816881 L116,13.3566871 C116,13.5637806 116.167906,13.7316867 116.375,13.7316867 L127.044738,13.7316867 L122.196931,18.5794938 C122.050493,18.7259311 122.050493,18.9633683 122.196931,19.1098369 L122.815649,19.728555 C122.962086,19.8749923 123.199523,19.8749923 123.345992,19.728555 L129.890172,13.1843748 C130.036609,13.0379375 130.036609,12.8005002 129.890172,12.6540316 L123.345961,6.10985144 C123.199523,5.96338285 122.962086,5.96338285 122.815649,6.10985144 Z" id="Shape"></path>
                        </g>
                    </g>
                </g>
            </g>
        </g>
    </g>
</svg>