<?xml version="1.0" encoding="UTF-8"?>
<svg width="119px" height="120px" viewBox="0 0 119 120" version="1.1" xmlns="http://www.w3.org/2000/svg" xmlns:xlink="http://www.w3.org/1999/xlink">
    <!-- Generator: Sketch 44.1 (41455) - http://www.bohemiancoding.com/sketch -->
    <title>icon_strengthkeepers</title>
    <desc>Created with Sketch.</desc>
    <defs></defs>
    <g id="Welcome-Copy" stroke="none" stroke-width="1" fill="none" fill-rule="evenodd">
        <g id="Desktop-HD" transform="translate(-517.000000, -902.000000)">
            <g id="How-We-Help" transform="translate(1.000000, 744.000000)">
                <g id="Group-6" transform="translate(264.000000, 107.000000)">
                    <g id="Group-3" transform="translate(220.500000, 0.000000)">
                        <g id="icon_strengthkeepers" transform="translate(32.456376, 51.337607)">
                            <ellipse id="Oval" fill="#9B6FC6" cx="58.9328374" cy="59.5147842" rx="58.9328374" ry="59.5147842"></ellipse>
                            <path d="M79.4940146,27.6376838 L58.9967584,46.7966218 C58.7195812,42.6104008 56.8763526,38.647445 53.6888144,35.4380089 C50.8200301,32.5495164 43.3362448,27.288832 41.7840523,26.2143687 C37.0858983,22.8933 30.8216928,26.1445983 29.0477586,31.2099257 C26.3868571,32.1448484 24.1140038,34.4891321 23.2131778,37.0845891 C18.0853991,38.8986182 14.9948729,45.2198119 18.2517054,49.9083794 C19.3188377,51.4712352 24.5436285,59.006433 27.4124129,61.8949255 C30.3227738,64.8252802 33.7459126,66.5416308 37.2937812,67.0858395 L29.0616174,74.7884861 C24.8208058,78.7514419 24.6683583,85.5191659 28.7844402,89.6635246 L32.3877442,93.2915828 C36.5315438,97.4638497 43.2115151,97.2545387 47.119714,93.0543636 C47.3137381,92.8450526 46.3574766,93.9753322 56.6130342,81.7934292 L66.3280962,92.8310985 C70.2224363,97.2545387 77.054855,97.519666 81.2540901,93.2915828 L84.9821238,89.6635246 C89.1536412,85.4633496 88.9457582,78.570039 84.5247814,74.6349913 L75.0868967,66.3323197 C90.1791969,62.9693889 96.7344384,51.1363376 96.7344384,35.2007897 C96.7344384,26.2422768 86.0769739,21.483939 79.4940146,27.6376838 Z M32.110567,57.1644958 C29.505101,54.5271765 23.698238,46.0710102 23.698238,46.0710102 C22.9637183,45.0523631 25.3335837,42.7080793 26.3175628,43.4755532 L37.0720394,54.3039114 C38.1530306,55.2388341 40.5783314,52.8387341 39.6913642,51.7084544 L29.5328187,40.1823927 C28.8260168,39.1776996 31.1265878,36.8473699 32.1244258,37.5729816 L43.5718455,47.8013148 C44.6944133,48.6943753 47.0781374,46.2663671 46.1495937,45.1639956 L35.3951171,34.3356374 C34.6328798,33.3448984 36.9611685,30.9727065 37.9728654,31.6983181 C37.9728654,31.6983181 46.3713355,37.5450734 48.9906603,40.1684386 C54.035286,45.24772 53.1344599,51.9456736 48.4778825,56.6342411 C43.7242929,61.4204871 37.0720394,62.1600528 32.110567,57.1644958 Z M79.9929337,79.6305483 C81.5451262,81.0120013 81.6144205,83.4400094 80.1453811,84.9051868 L76.5420771,88.533245 C75.0730378,90.0123764 72.6754548,89.942606 71.3034275,88.3797502 L60.9647167,76.6304233 L67.6862646,68.6626494 L79.9929337,79.6305483 Z M65.7598828,60.5832429 L42.2691125,88.4634746 C40.8832263,89.9565601 38.5272199,89.9984223 37.0858983,88.547199 L33.4825943,84.9191408 C32.0412726,83.4679176 32.0828492,81.0957257 33.5796063,79.7003187 L84.0258624,32.5355623 C86.3402923,30.3726815 90.0821849,32.0332158 90.0821849,35.1868356 C90.0821849,50.3688637 83.7764029,60.5832429 65.7598828,60.5832429 Z" id="Utensils-alt" fill="#FFFFFF" fill-rule="nonzero"></path>
                        </g>
                    </g>
                </g>
            </g>
        </g>
    </g>
</svg>