<?xml version="1.0" encoding="UTF-8"?>
<svg width="119px" height="120px" viewBox="0 0 119 120" version="1.1" xmlns="http://www.w3.org/2000/svg" xmlns:xlink="http://www.w3.org/1999/xlink">
    <!-- Generator: Sketch 44.1 (41455) - http://www.bohemiancoding.com/sketch -->
    <title>icon_communityevents</title>
    <desc>Created with Sketch.</desc>
    <defs></defs>
    <g id="Welcome-Copy" stroke="none" stroke-width="1" fill="none" fill-rule="evenodd">
        <g id="Desktop-HD" transform="translate(-1044.000000, -902.000000)">
            <g id="How-We-Help" transform="translate(1.000000, 744.000000)">
                <g id="Group-6" transform="translate(264.000000, 107.000000)">
                    <g id="Group-5" transform="translate(752.250000, 51.250000)">
                        <g id="icon_communityevents" transform="translate(27.460432, 0.000000)">
                            <path d="M59.1636675,119.142276 C91.7451532,119.142276 118.157666,92.4713694 118.157666,59.5711382 C118.157666,26.670907 91.7451532,0 59.1636675,0 C26.5821818,0 0.16966894,26.670907 0.16966894,59.5711382 C0.16966894,92.4713694 26.5821818,119.142276 59.1636675,119.142276 Z" id="Oval" fill="#FED531"></path>
                            <path d="M47.768918,63.1058181 L41.9681971,63.1058181 C41.0110781,63.1058181 40.2279808,62.3184681 40.2279808,61.3561515 L40.2279808,55.5239298 C40.2279808,54.5616132 41.0110781,53.7742632 41.9681971,53.7742632 L47.768918,53.7742632 C48.726037,53.7742632 49.5091343,54.5616132 49.5091343,55.5239298 L49.5091343,61.3561515 C49.5091343,62.3184681 48.726037,63.1058181 47.768918,63.1058181 Z M63.4308645,61.3561515 L63.4308645,55.5239298 C63.4308645,54.5616132 62.6477672,53.7742632 61.6906482,53.7742632 L55.8899273,53.7742632 C54.9328084,53.7742632 54.149711,54.5616132 54.149711,55.5239298 L54.149711,61.3561515 C54.149711,62.3184681 54.9328084,63.1058181 55.8899273,63.1058181 L61.6906482,63.1058181 C62.6477672,63.1058181 63.4308645,62.3184681 63.4308645,61.3561515 Z M77.3525947,61.3561515 L77.3525947,55.5239298 C77.3525947,54.5616132 76.5694974,53.7742632 75.6123785,53.7742632 L69.8116575,53.7742632 C68.8545386,53.7742632 68.0714413,54.5616132 68.0714413,55.5239298 L68.0714413,61.3561515 C68.0714413,62.3184681 68.8545386,63.1058181 69.8116575,63.1058181 L75.6123785,63.1058181 C76.5694974,63.1058181 77.3525947,62.3184681 77.3525947,61.3561515 Z M63.4308645,75.3534839 L63.4308645,69.5212621 C63.4308645,68.5589455 62.6477672,67.7715955 61.6906482,67.7715955 L55.8899273,67.7715955 C54.9328084,67.7715955 54.149711,68.5589455 54.149711,69.5212621 L54.149711,75.3534839 C54.149711,76.3158005 54.9328084,77.1031504 55.8899273,77.1031504 L61.6906482,77.1031504 C62.6477672,77.1031504 63.4308645,76.3158005 63.4308645,75.3534839 Z M49.5091343,75.3534839 L49.5091343,69.5212621 C49.5091343,68.5589455 48.726037,67.7715955 47.768918,67.7715955 L41.9681971,67.7715955 C41.0110781,67.7715955 40.2279808,68.5589455 40.2279808,69.5212621 L40.2279808,75.3534839 C40.2279808,76.3158005 41.0110781,77.1031504 41.9681971,77.1031504 L47.768918,77.1031504 C48.726037,77.1031504 49.5091343,76.3158005 49.5091343,75.3534839 Z M77.3525947,75.3534839 L77.3525947,69.5212621 C77.3525947,68.5589455 76.5694974,67.7715955 75.6123785,67.7715955 L69.8116575,67.7715955 C68.8545386,67.7715955 68.0714413,68.5589455 68.0714413,69.5212621 L68.0714413,75.3534839 C68.0714413,76.3158005 68.8545386,77.1031504 69.8116575,77.1031504 L75.6123785,77.1031504 C76.5694974,77.1031504 77.3525947,76.3158005 77.3525947,75.3534839 Z M91.274325,37.4440422 L91.274325,88.767594 C91.274325,92.6314409 88.1564375,95.7662602 84.3134598,95.7662602 L33.2671157,95.7662602 C29.4241381,95.7662602 26.3062506,92.6314409 26.3062506,88.767594 L26.3062506,37.4440422 C26.3062506,33.5801952 29.4241381,30.445376 33.2671157,30.445376 L40.2279808,30.445376 L40.2279808,22.8634877 C40.2279808,21.9011711 41.0110781,21.1138211 41.9681971,21.1138211 L47.768918,21.1138211 C48.726037,21.1138211 49.5091343,21.9011711 49.5091343,22.8634877 L49.5091343,30.445376 L68.0714413,30.445376 L68.0714413,22.8634877 C68.0714413,21.9011711 68.8545386,21.1138211 69.8116575,21.1138211 L75.6123785,21.1138211 C76.5694974,21.1138211 77.3525947,21.9011711 77.3525947,22.8634877 L77.3525947,30.445376 L84.3134598,30.445376 C88.1564375,30.445376 91.274325,33.5801952 91.274325,37.4440422 Z M84.3134598,87.8927607 L84.3134598,44.4427083 L33.2671157,44.4427083 L33.2671157,87.8927607 C33.2671157,88.373919 33.6586644,88.767594 34.1372238,88.767594 L83.4433517,88.767594 C83.9219112,88.767594 84.3134598,88.373919 84.3134598,87.8927607 Z" id="Shape" fill="#FFFFFF" fill-rule="nonzero"></path>
                        </g>
                    </g>
                </g>
            </g>
        </g>
    </g>
</svg>