<?xml version="1.0" encoding="UTF-8"?>
<svg width="119px" height="120px" viewBox="0 0 119 120" version="1.1" xmlns="http://www.w3.org/2000/svg" xmlns:xlink="http://www.w3.org/1999/xlink">
    <!-- Generator: Sketch 44.1 (41455) - http://www.bohemiancoding.com/sketch -->
    <title>icon_homesofhope</title>
    <desc>Created with Sketch.</desc>
    <defs></defs>
    <g id="Welcome-Copy" stroke="none" stroke-width="1" fill="none" fill-rule="evenodd">
        <g id="Desktop-HD" transform="translate(-269.000000, -905.000000)">
            <g id="How-We-Help" transform="translate(1.000000, 744.000000)">
                <g id="Group-6" transform="translate(264.000000, 107.000000)">
                    <g id="Group-2" transform="translate(0.000000, 54.250000)">
                        <g id="icon_homesofhope" transform="translate(3.742424, 0.000000)">
                            <ellipse id="Oval" fill="#F96F76" cx="59.6217325" cy="59.5759991" rx="58.8913927" ry="59.5759991"></ellipse>
                            <g id="home" transform="translate(15.639553, 20.361417)" fill-rule="nonzero" fill="#FFFFFF">
                                <path d="M85.85577,33.3686418 L78.7130007,27.4687718 L78.7130007,11.5119416 C78.7130007,10.8084341 78.1428462,10.232837 77.4459906,10.232837 L72.3779504,10.232837 C71.6810948,10.232837 71.1109403,10.8084341 71.1109403,11.5119416 L71.1109403,21.1851703 L47.2594757,1.45498151 C44.9313447,-0.479664233 41.5579304,-0.479664233 39.2297993,1.45498151 L0.61766741,33.3686418 C0.0791881295,33.8163284 1.66533454e-16,34.6157688 0.443453525,35.1753771 L3.65849158,39.1406014 C4.10194511,39.6842209 4.8938264,39.7641649 5.44814331,39.3164783 L7.77627432,37.3978214 L7.77627432,69.0716496 C7.77627432,70.4786647 8.91658338,71.6298588 10.3102945,71.6298588 L36.917506,71.6298588 C37.6143615,71.6298588 38.184516,71.0542618 38.184516,70.3507542 L38.184516,49.8850803 L48.3205966,49.8850803 L48.3205966,70.3507542 C48.3205966,71.0542618 48.8907511,71.6298588 49.5876067,71.6298588 L76.1948182,71.6298588 C77.5885293,71.6298588 78.7288383,70.4786647 78.7288383,69.0716496 L78.7288383,37.3818326 L81.0569693,39.3004895 C81.5954486,39.7481761 82.4031675,39.6682321 82.8466211,39.1246126 L86.0616591,35.1593883 C86.4734374,34.6157688 86.3942493,33.8163284 85.85577,33.3686418 Z M71.1109403,63.9552311 L55.9068194,63.9552311 L55.9068194,43.4895571 C55.9068194,42.7860496 55.3366649,42.2104525 54.6398093,42.2104525 L31.8336281,42.2104525 C31.1367725,42.2104525 30.566618,42.7860496 30.566618,43.4895571 L30.566618,63.9552311 L15.3624971,63.9552311 L15.3624971,31.0982311 L42.4289998,8.71390024 C42.8882909,8.33016885 43.5693088,8.33016885 44.0286,8.71390024 L71.0951027,31.0982311 L71.0951027,63.9552311 L71.1109403,63.9552311 Z" id="Shape"></path>
                            </g>
                        </g>
                    </g>
                </g>
            </g>
        </g>
    </g>
</svg>