<?xml version="1.0" encoding="UTF-8"?>
<svg width="119px" height="120px" viewBox="0 0 119 120" version="1.1" xmlns="http://www.w3.org/2000/svg" xmlns:xlink="http://www.w3.org/1999/xlink">
    <!-- Generator: Sketch 44.1 (41455) - http://www.bohemiancoding.com/sketch -->
    <title>icon_supportgroups</title>
    <desc>Created with Sketch.</desc>
    <defs></defs>
    <g id="Welcome-Copy" stroke="none" stroke-width="1" fill="none" fill-rule="evenodd">
        <g id="Desktop-HD" transform="translate(-770.000000, -902.000000)">
            <g id="How-We-Help" transform="translate(1.000000, 744.000000)">
                <g id="Group-6" transform="translate(264.000000, 107.000000)">
                    <g id="Group-4" transform="translate(503.000000, 51.250000)">
                        <g id="icon_supportgroups" transform="translate(2.494949, 0.000000)">
                            <ellipse id="Oval" fill="#51B6AA" cx="59.3782859" cy="59.5759991" rx="58.8913927" ry="59.5759991"></ellipse>
                            <g id="heart" transform="translate(18.377949, 27.902683)" fill-rule="nonzero" fill="#FFFFFF">
                                <path d="M35.9031082,70.4302208 L10.5416327,45.1851838 C9.44899633,44.1554109 0,34.9654685 0,23.528749 C0,9.37717384 8.74109107,0 23.3916522,0 C29.7627995,0 35.7953835,3.55739707 40.6276064,7.77010412 C45.44444,3.55739707 51.4924132,0 57.8635606,0 C71.9754981,0 81.2552127,8.81547957 81.2552127,23.528749 C81.2552127,31.6421107 76.3614329,39.6774594 70.775137,45.1695812 L70.71358,45.2319916 L45.3521045,70.4302208 C42.7330056,73.0514942 38.5222071,73.0514942 35.9031082,70.4302208 Z M15.6816405,39.8022803 L40.6276064,64.6416493 L65.5274045,39.8802934 C69.7286684,35.6675864 73.8683752,29.5357572 73.8683752,23.528749 C73.8683752,13.0905971 67.9896837,7.48925698 57.8635606,7.48925698 C50.599837,7.48925698 43.5823414,15.181348 40.6276064,18.1614482 C38.0114347,15.509003 30.7784897,7.48925698 23.3916522,7.48925698 C13.2501398,7.48925698 7.38683752,13.0905971 7.38683752,23.528749 C7.38683752,29.3485258 11.4957659,35.8392152 15.6816405,39.8022803 Z" id="Shape"></path>
                            </g>
                        </g>
                    </g>
                </g>
            </g>
        </g>
    </g>
</svg>